<svg xmlns="http://www.w3.org/2000/svg" version="1.1" xmlns:xlink="http://www.w3.org/1999/xlink" width="1000" height="1000"><style>
    #light-icon {
      display: inline;
    }
    #dark-icon {
      display: none;
    }

    @media (prefers-color-scheme: dark) {
      #light-icon {
        display: none;
      }
      #dark-icon {
        display: inline;
      }
    }
  </style><g id="light-icon"><svg xmlns="http://www.w3.org/2000/svg" version="1.1" xmlns:xlink="http://www.w3.org/1999/xlink" width="1000" height="1000"><g clip-path="url(#SvgjsClipPath1157)"><rect width="1000" height="1000" fill="#ffffff"></rect><g transform="matrix(28.910089621277823,0,0,28.910089621277823,0,37.43856605955483)"><svg xmlns="http://www.w3.org/2000/svg" xmlns:xlink="http://www.w3.org/1999/xlink" id="Capa_2" data-name="Capa 2" viewBox="0 0 34.59 32" width="34.59" height="32"><defs>
    <style>
      .cls-1 {
        fill: url(#Degradado_sin_nombre_595);
      }

      .cls-2 {
        fill: url(#Degradado_sin_nombre_595-3);
      }

      .cls-3 {
        fill: url(#Degradado_sin_nombre_595-2);
      }

      .cls-4 {
        fill: #fff;
      }

      .cls-5 {
        fill: none;
      }

      .cls-6 {
        clip-path: url(#clippath);
      }
    </style>
    <clipPath id="clippath">
      <rect class="cls-5" x="2.59" width="32" height="32"></rect>
    </clipPath>
    <linearGradient id="Degradado_sin_nombre_595" data-name="Degradado sin nombre 595" x1="18.52" y1="16.41" x2="28.42" y2="16.41" gradientUnits="userSpaceOnUse">
      <stop offset="0" stop-color="#dd071c"></stop>
      <stop offset=".54" stop-color="#870009"></stop>
      <stop offset="1" stop-color="#dd071c"></stop>
    </linearGradient>
    <linearGradient id="Degradado_sin_nombre_595-2" data-name="Degradado sin nombre 595" x1="9.27" y1="16.41" x2="19.17" y2="16.41" xlink:href="#Degradado_sin_nombre_595"></linearGradient>
    <linearGradient id="Degradado_sin_nombre_595-3" data-name="Degradado sin nombre 595" x1="0" y1="17.54" x2="19.78" y2="17.54" xlink:href="#Degradado_sin_nombre_595"></linearGradient>
  <clipPath id="SvgjsClipPath1157"><rect width="1000" height="1000" x="0" y="0" rx="500" ry="500"></rect></clipPath></defs><g id="Capa_1-2" data-name="Capa 1">
    <g class="cls-6">
      <rect class="cls-4" x="2.59" width="32" height="32"></rect>
      <g>
        <path class="cls-1" d="M19.82,12.98c.25-3.09,3.58-4.76,6.07-2.67,1.87,1.57,1.26,4.27.48,6.25-1.31,3.33-4.07,5.83-7.45,6.94-1.18.39-.68,2.27.52,1.88,4.93-1.63,8.9-5.89,9.56-11.14.41-3.25-1.44-6.22-4.8-6.76s-6.06,2.24-6.32,5.51c-.1,1.25,1.85,1.24,1.95,0h0Z"></path>
        <path class="cls-3" d="M19.82,12.98c-.26-3.27-2.84-6.07-6.32-5.51-3.42.55-5.24,3.61-4.78,6.89.75,5.37,4.85,9.37,9.87,11.01,1.19.39,1.7-1.49.52-1.88-3.42-1.12-6.36-3.43-7.73-6.82-.76-1.88-1.42-4.45.15-6.11,2.37-2.49,6.09-.83,6.35,2.41.1,1.24,2.05,1.25,1.95,0h0Z"></path>
        <path class="cls-2" d="M18.93,12.23s-.04,0-.05,0c-.47,0-.96.33-1,.98-.14,2.54-3.17,3.61-4.46,3.95-1.1.29-3.04.25-4.22.23h-.02c-.34,0-.68.22-.82.52l-.65,1.45-1.47-3.76c-.12-.31-.38-.5-.71-.52-.37-.03-.76.18-.94.5l-1.32,2.35H.93c-.61,0-.93.51-.93,1.02s.32,1.02.93,1.02c.44,0,.76,0,1.05.02.51.01.94.03,1.83-.02.64-.03.92-.6,1.17-1.1.06-.12.11-.23.18-.34l.12-.2,1.56,4c.12.32.43.52.79.53h.03c.38,0,.71-.2.85-.52l1.3-2.91h.02c1.43,0,3.92-.11,5.54-.77,2.68-1.1,4.3-3.08,4.43-5.42.04-.65-.41-.97-.85-1Z"></path>
      </g>
    </g>
  </g></svg></g></g></svg></g><g id="dark-icon"><svg xmlns="http://www.w3.org/2000/svg" version="1.1" xmlns:xlink="http://www.w3.org/1999/xlink" width="1000" height="1000"><g clip-path="url(#SvgjsClipPath1158)"><rect width="1000" height="1000" fill="#ffffff"></rect><g transform="matrix(28.910089621277823,0,0,28.910089621277823,0,37.43856605955483)"><svg xmlns="http://www.w3.org/2000/svg" xmlns:xlink="http://www.w3.org/1999/xlink" id="Capa_2" data-name="Capa 2" viewBox="0 0 34.59 32" width="34.59" height="32"><defs>
    <style>
      .cls-1 {
        fill: url(#Degradado_sin_nombre_595);
      }

      .cls-2 {
        fill: url(#Degradado_sin_nombre_595-3);
      }

      .cls-3 {
        fill: url(#Degradado_sin_nombre_595-2);
      }

      .cls-4 {
        fill: #fff;
      }

      .cls-5 {
        fill: none;
      }

      .cls-6 {
        clip-path: url(#clippath);
      }
    </style>
    <clipPath id="clippath">
      <rect class="cls-5" x="2.59" width="32" height="32"></rect>
    </clipPath>
    <linearGradient id="Degradado_sin_nombre_595" data-name="Degradado sin nombre 595" x1="18.52" y1="16.41" x2="28.42" y2="16.41" gradientUnits="userSpaceOnUse">
      <stop offset="0" stop-color="#dd071c"></stop>
      <stop offset=".54" stop-color="#870009"></stop>
      <stop offset="1" stop-color="#dd071c"></stop>
    </linearGradient>
    <linearGradient id="Degradado_sin_nombre_595-2" data-name="Degradado sin nombre 595" x1="9.27" y1="16.41" x2="19.17" y2="16.41" xlink:href="#Degradado_sin_nombre_595"></linearGradient>
    <linearGradient id="Degradado_sin_nombre_595-3" data-name="Degradado sin nombre 595" x1="0" y1="17.54" x2="19.78" y2="17.54" xlink:href="#Degradado_sin_nombre_595"></linearGradient>
  <clipPath id="SvgjsClipPath1158"><rect width="1000" height="1000" x="0" y="0" rx="500" ry="500"></rect></clipPath></defs><g id="Capa_1-2" data-name="Capa 1">
    <g class="cls-6">
      <rect class="cls-4" x="2.59" width="32" height="32"></rect>
      <g>
        <path class="cls-1" d="M19.82,12.98c.25-3.09,3.58-4.76,6.07-2.67,1.87,1.57,1.26,4.27.48,6.25-1.31,3.33-4.07,5.83-7.45,6.94-1.18.39-.68,2.27.52,1.88,4.93-1.63,8.9-5.89,9.56-11.14.41-3.25-1.44-6.22-4.8-6.76s-6.06,2.24-6.32,5.51c-.1,1.25,1.85,1.24,1.95,0h0Z"></path>
        <path class="cls-3" d="M19.82,12.98c-.26-3.27-2.84-6.07-6.32-5.51-3.42.55-5.24,3.61-4.78,6.89.75,5.37,4.85,9.37,9.87,11.01,1.19.39,1.7-1.49.52-1.88-3.42-1.12-6.36-3.43-7.73-6.82-.76-1.88-1.42-4.45.15-6.11,2.37-2.49,6.09-.83,6.35,2.41.1,1.24,2.05,1.25,1.95,0h0Z"></path>
        <path class="cls-2" d="M18.93,12.23s-.04,0-.05,0c-.47,0-.96.33-1,.98-.14,2.54-3.17,3.61-4.46,3.95-1.1.29-3.04.25-4.22.23h-.02c-.34,0-.68.22-.82.52l-.65,1.45-1.47-3.76c-.12-.31-.38-.5-.71-.52-.37-.03-.76.18-.94.5l-1.32,2.35H.93c-.61,0-.93.51-.93,1.02s.32,1.02.93,1.02c.44,0,.76,0,1.05.02.51.01.94.03,1.83-.02.64-.03.92-.6,1.17-1.1.06-.12.11-.23.18-.34l.12-.2,1.56,4c.12.32.43.52.79.53h.03c.38,0,.71-.2.85-.52l1.3-2.91h.02c1.43,0,3.92-.11,5.54-.77,2.68-1.1,4.3-3.08,4.43-5.42.04-.65-.41-.97-.85-1Z"></path>
      </g>
    </g>
  </g></svg></g></g></svg></g></svg>